<svg width="22" height="22" viewBox="0 0 22 22" fill="none" xmlns="http://www.w3.org/2000/svg">
<path fill-rule="evenodd" clip-rule="evenodd" d="M5.7619 1.02344C3.14512 1.02344 1.0238 3.14476 1.0238 5.76153V16.2377C1.0238 18.8545 3.14512 20.9758 5.7619 20.9758H16.2381C18.8549 20.9758 20.9762 18.8545 20.9762 16.2377V5.76153C20.9762 3.14476 18.8549 1.02344 16.2381 1.02344H5.7619ZM0.0238037 5.76153C0.0238037 2.59247 2.59284 0.0234375 5.7619 0.0234375H16.2381C19.4072 0.0234375 21.9762 2.59247 21.9762 5.76153V16.2377C21.9762 19.4068 19.4072 21.9758 16.2381 21.9758H5.7619C2.59284 21.9758 0.0238037 19.4068 0.0238037 16.2377V5.76153ZM11.5866 7.30355C10.8188 7.18969 10.0346 7.32084 9.34559 7.67835C8.65658 8.03587 8.09785 8.60154 7.74886 9.2949C7.39986 9.98827 7.27839 10.774 7.40171 11.5404C7.52503 12.3068 7.88687 13.0148 8.43576 13.5637C8.98464 14.1126 9.69263 14.4744 10.459 14.5977C11.2254 14.721 12.0112 14.5996 12.7045 14.2506C13.3979 13.9016 13.9636 13.3428 14.3211 12.6538C14.6786 11.9648 14.8097 11.1806 14.6959 10.4128C14.5797 9.62954 14.2148 8.90443 13.6549 8.34455C13.095 7.78466 12.3699 7.41969 11.5866 7.30355ZM8.88502 6.79073C9.76073 6.33634 10.7574 6.16965 11.7333 6.31436C12.7288 6.46198 13.6504 6.92584 14.362 7.63744C15.0736 8.34903 15.5374 9.27063 15.6851 10.2661C15.8298 11.242 15.6631 12.2387 15.2087 13.1144C14.7543 13.9901 14.0354 14.7002 13.1541 15.1438C12.2729 15.5874 11.2742 15.7417 10.3001 15.585C9.32609 15.4283 8.42627 14.9684 7.72865 14.2708C7.03103 13.5732 6.57115 12.6733 6.41441 11.6993C6.25767 10.7252 6.41206 9.72656 6.85562 8.84531C7.29918 7.96407 8.00931 7.24512 8.88502 6.79073ZM16.7619 4.73772C16.4858 4.73772 16.2619 4.96158 16.2619 5.23772C16.2619 5.51387 16.4858 5.73772 16.7619 5.73772H16.7719C17.048 5.73772 17.2719 5.51387 17.2719 5.23772C17.2719 4.96158 17.048 4.73772 16.7719 4.73772H16.7619Z" fill="#000001" fill-opacity="0.882353"/>
</svg>
