<svg width="31" height="24" viewBox="0 0 31 24" fill="none" xmlns="http://www.w3.org/2000/svg">
<path d="M28.4132 5.13066C28.2621 4.5167 27.9542 3.95417 27.5207 3.49988C27.0872 3.04559 26.5434 2.71563 25.9443 2.54334C23.7553 2 14.9994 2 14.9994 2C14.9994 2 6.24348 2 4.0545 2.59508C3.4554 2.76738 2.91163 3.09734 2.47812 3.55163C2.04461 4.00591 1.73672 4.56845 1.58554 5.18241C1.18493 7.44056 0.988963 9.73132 1.00012 12.0259C0.985837 14.3377 1.18181 16.6459 1.58554 18.9211C1.75221 19.516 2.067 20.0571 2.4995 20.4922C2.93199 20.9273 3.46758 21.2417 4.0545 21.4049C6.24348 22 14.9994 22 14.9994 22C14.9994 22 23.7553 22 25.9443 21.4049C26.5434 21.2326 27.0872 20.9027 27.5207 20.4484C27.9542 19.9941 28.2621 19.4316 28.4132 18.8176C28.8108 16.5764 29.0067 14.3031 28.9987 12.0259C29.0129 9.71404 28.817 7.40582 28.4132 5.13066V5.13066Z" stroke="#000001" stroke-opacity="0.882353" stroke-linecap="round" stroke-linejoin="round"/>
<path d="M12 16L20 12L12 8V16Z" stroke="#000001" stroke-opacity="0.882353" stroke-linecap="round" stroke-linejoin="round"/>
</svg>
